#!OML:ASF F:\VICON\USERDATA\INSTALL\rory3\rory3.ASF
:FULLY-SPECIFIED
:DEGREES
4315
root 11.3913 17.7844 -2.31775 353.24 -258.757 716.467
lowerback 10.7193 2.6323 1.93903
upperback 0.792062 3.76187 -0.160859
thorax -5.04045 1.82772 -1.81431
lowerneck -17.6586 2.05444 -7.13388
upperneck 41.702 8.15884 1.67412
head 18.3301 3.16106 3.96128
rclavicle 2.5755e-014 6.55989e-015
rhumerus -35.5099 -10.363 -75.3748
rradius 35.8979
rwrist 3.33522
rhand -17.9861 10.0187
rfingers 7.12502
rthumb 8.28374 -19.7989
lclavicle 2.5755e-014 6.55989e-015
lhumerus -39.5325 15.7597 74.4607
lradius 28.5217
lwrist -7.49033
lhand -22.8845 22.8676
lfingers 7.12502
lthumb 3.55465 52.8177
rfemur 1.67398 -0.692469 12.9092
rtibia 26.4588
rfoot -16.4242 -17.553
rtoes 2.2785
lfemur -10.9492 -3.45188 -11.7666
ltibia 19.9711
lfoot 1.08545 9.69635
ltoes -9.43412
4316
root 11.4235 17.7817 -2.39969 351.091 -258.227 714.324
lowerback 10.8407 2.65747 1.58166
upperback 0.791352 3.7463 -0.328074
thorax -5.12094 1.82514 -1.79356
lowerneck -17.8553 1.97334 -7.3017
upperneck 41.7598 8.04459 1.86191
head 18.4019 3.10928 4.07062
rclavicle -2.74074e-014 2.78299e-015
rhumerus -35.5233 -10.3894 -75.4485
rradius 35.9139
rwrist 3.12831
rhand -18.6093 9.31243
rfingers 7.12502
rthumb 7.68225 -20.528
lclavicle -2.74074e-014 2.78299e-015
lhumerus -39.2765 15.7457 74.5195
lradius 28.2354
lwrist -7.37221
lhand -22.6681 22.8133
lfingers 7.12502
lthumb 3.76365 52.7599
rfemur 1.90485 -0.461835 12.2987
rtibia 26.7197
rfoot -16.3987 -18.3475
rtoes 2.39856
lfemur -10.8459 -2.75192 -12.6388
ltibia 19.9317
lfoot 0.840284 8.72297
ltoes -8.58494
4317
root 11.4576 17.7825 -2.47692 349.01 -257.667 712.185
lowerback 10.8996 2.69914 1.1543
upperback 0.791052 3.74014 -0.542275
thorax -5.16706 1.82926 -1.78047
lowerneck -17.9673 1.9303 -7.37613
upperneck 41.6459 7.93421 1.98118
head 18.3564 3.07093 4.1144
rclavicle 4.25896e-014 2.18663e-015
rhumerus -35.5145 -11.0315 -75.4152
rradius 35.7723
rwrist 3.54447
rhand -18.438 9.56647
rfingers 7.12502
rthumb 7.84765 -20.2679
lclavicle 4.25896e-014 2.18663e-015
lhumerus -38.9527 15.6732 74.5222
lradius 27.8851
lwrist -7.4837
lhand -22.5057 22.7925
lfingers 7.12502
lthumb 3.9204 52.7362
rfemur 1.995 -0.239236 11.6688
rtibia 27.1329
rfoot -16.2698 -19.2668
rtoes 2.37506
lfemur -10.7927 -2.47516 -13.5039
ltibia 19.9148
lfoot 0.550576 8.60447
ltoes -6.53027
4318
root 11.475 17.7874 -2.54156 347.398 -256.673 710.372
lowerback 11.052 2.59917 0.553802
upperback 0.67894 3.52126 -0.782932
thorax -5.3983 1.72899 -1.67569
lowerneck -17.9433 1.92796 -7.29814
upperneck 41.4572 7.82617 2.04311
head 18.2405 3.0562 4.09313
rclavicle -3.56322e-014 5.36719e-015
rhumerus -35.6537 -11.5492 -75.5618
rradius 35.8396
rwrist 3.88789
rhand -17.546 10.4401
rfingers 7.12502
rthumb 8.70845 -19.3602
lclavicle -3.56322e-014 5.36719e-015
lhumerus -38.7772 15.6679 74.3737
lradius 27.7171
lwrist -7.76007
lhand -22.3668 22.9802
lfingers 7.12502
lthumb 4.05452 52.9214
rfemur 1.93355 -0.232679 11.0535
rtibia 27.6165
rfoot -16.2104 -20.2707
rtoes 3.22194
lfemur -11.111 -2.24371 -14.3894
ltibia 19.9554
lfoot 0.356328 7.67868
ltoes -5.62672
4319
root 11.5044 17.7888 -2.61852 346.366 -255.996 709.157
lowerback 10.9772 2.59597 0.0985113
upperback 0.646689 3.45514 -0.888608
thorax -5.41267 1.7062 -1.51833
lowerneck -18.06 1.87661 -7.40502
upperneck 41.356 7.73913 2.1198
head 18.2065 3.01544 4.12839
rclavicle -1.77912e-014 1.98785e-016
rhumerus -35.7307 -11.8196 -75.6244
rradius 36.0244
rwrist 3.88286
rhand -17.015 10.644
rfingers 7.12502
rthumb 9.22091 -19.1343
lclavicle -1.77912e-014 1.98785e-016
lhumerus -38.5956 15.5452 74.5323
lradius 27.6532
lwrist -7.65744
lhand -22.7835 22.9809
lfingers 7.12502
lthumb 3.65218 52.9293
rfemur 1.83363 -0.0331897 10.5661
rtibia 28.1316
rfoot -16.158 -21.0926
rtoes 3.69544
lfemur -11.3497 -1.69883 -15.1399
ltibia 20.035
lfoot 0.176279 6.28687
ltoes -6.86626
4320
root 11.5391 17.7879 -2.70305 345.746 -255.537 708.361
lowerback 10.7913 2.705 -0.0821395
upperback 0.682074 3.57421 -1.0115
thorax -5.27193 1.77019 -1.55187
lowerneck -18.2562 1.7523 -7.54836
upperneck 41.2541 7.52039 2.27576
head 18.1957 2.92429 4.1857
rclavicle -4.97334e-014 6.06293e-015
rhumerus -35.7733 -12.2952 -75.6292
rradius 36.2093
rwrist 3.52629
rhand -16.8757 10.5183
rfingers 7.12502
rthumb 9.35525 -19.2541
lclavicle -4.97334e-014 6.06293e-015
lhumerus -38.3 15.3134 74.7654
lradius 27.7027
lwrist -7.51376
lhand -22.9123 22.829
lfingers 7.12502
lthumb 3.52783 52.7796
rfemur 1.66501 0.272788 10.1751
rtibia 28.6691
rfoot -16.1025 -21.8014
rtoes 4.58801
lfemur -11.5416 -1.25265 -15.7736
ltibia 20.1846
lfoot -0.0154307 5.25911
ltoes -8.45888
